/* XPM */
static char *result[] = {
/* columns rows colors chars-per-pixel */
"32 32 141 2 ",
"   c #2B2A2A",
".  c #353433",
"X  c #454342",
"o  c #7B6C69",
"O  c #7F7C7A",
"+  c #836668",
"@  c #847C79",
"#  c #F35356",
"$  c #F2595A",
"%  c #C6697B",
"&  c #CA6A7B",
"*  c #D16E7C",
"=  c #C9707C",
"-  c #D2717F",
";  c #DF737F",
":  c #EA676A",
">  c #FC6262",
",  c #E36D75",
"<  c #E96E74",
"1  c #FB7778",
"2  c #BD7990",
"3  c #CC7385",
"4  c #C9778A",
"5  c #CC7B8E",
"6  c #D57481",
"7  c #D97785",
"8  c #D87987",
"9  c #D37C8C",
"0  c #DB7B89",
"q  c #C37E94",
"w  c #CD7E91",
"e  c #D07E91",
"r  c #BC878E",
"t  c #B48C92",
"y  c #BD859D",
"u  c #BD8DA6",
"i  c #BA8FA9",
"p  c #B690AC",
"a  c #BC92AD",
"s  c #B795B2",
"d  c #BC96B1",
"f  c #BA9BB6",
"g  c #B59EBB",
"h  c #B99FBC",
"j  c #BAB0A9",
"k  c #B0A0BF",
"l  c #C5878C",
"z  c #D6848F",
"x  c #DD818F",
"c  c #CD8396",
"v  c #C5869B",
"b  c #C5899E",
"n  c #CD8B9F",
"m  c #D38293",
"M  c #DD8492",
"N  c #D18C95",
"B  c #DE8897",
"V  c #D58798",
"C  c #D58A9A",
"Z  c #DE8D9A",
"A  c #DA929D",
"S  c #FF8080",
"D  c #E38A97",
"F  c #E88B97",
"G  c #E48D9A",
"H  c #E6919E",
"J  c #E8939F",
"K  c #C58FA5",
"L  c #C392A9",
"P  c #CD96A9",
"I  c #CD98AB",
"U  c #D593A4",
"Y  c #DD91A0",
"T  c #C09BB5",
"R  c #E695A1",
"E  c #E996A3",
"W  c #E29AA5",
"Q  c #EA99A6",
"!  c #ED9DAA",
"~  c #D8ABAF",
"^  c #C4B9B1",
"/  c #E5A0AB",
"(  c #EEA1AD",
")  c #F1A2AF",
"_  c #EFA6B1",
"`  c #EEABB4",
"'  c #EEAFB9",
"]  c #F1A6B2",
"[  c #F2AAB5",
"{  c #F5AEB9",
"}  c #E4B3B9",
"|  c #ECB1B9",
" . c #EEBABF",
".. c #F5B2BC",
"X. c #F8B5BF",
"o. c #F2BABE",
"O. c #AFA6C7",
"+. c #AFABCC",
"@. c #B3A5C4",
"#. c #BBA7C3",
"$. c #B5A8C7",
"%. c #B1A7C8",
"&. c #B2ABCB",
"*. c #AEB6D9",
"=. c #ADBADE",
"-. c #B0B4D6",
";. c #ADBEE2",
":. c #E6BDC1",
">. c #EFBCC2",
",. c #F5B7C0",
"<. c #F9B7C1",
"1. c #F3BBC2",
"2. c #FCBBC5",
"3. c #FDBEC8",
"4. c #ACC2E6",
"5. c #ABC4EA",
"6. c #AAC8EE",
"7. c #A9CDF4",
"8. c #ABD0F7",
"9. c #A7D4FD",
"0. c #A8D2FB",
"q. c #E5C4C2",
"w. c #F3C4C9",
"e. c #FBC5CD",
"r. c #F2CECD",
"t. c #F8C8CF",
"y. c #F4D2CC",
"u. c #F7CDD3",
"i. c #F9CBD2",
"p. c #E6D9D0",
"a. c #ECDFD5",
"s. c #FDD0D7",
"d. c #FDD5DB",
"f. c #F7DEDE",
"g. c #FADDDE",
"h. c #F9E2DA",
"j. c #FADFE0",
"k. c #FCE4E6",
"l. c #FEEBEA",
"z. c #FFF0EF",
"x. c #FFF2F0",
/* pixels */
"9.9.9.9.9.0.9.9.8.6.9.9.9.9.9.9.9.9.9.9.9.9.9.9.9.9.9.9.9.9.9.9.",
"9.9.9.0.7.*.h s m V a 7.9.9.9.9.9.9.9.9.9.9.9.9.9.9.9.9.9.9.9.9.",
"9.9.9.@.V M X.G 8 - H p 9.9.9.9.9.9.9.9.9.9.9.9.9.9.9.9.9.9.9.9.",
"9.9.7.5 J 2.3.Q h.y.0 M *.9.9.9.9.9.9.9.9.9.9.9.9.9.9.9.9.9.9.9.",
"0.0.4.- y.,.3...a.O q.M b 9.9.9.9.9.9.9.9.9.9.9.9.9.9.9.9.9.9.9.",
"9.0.4.6 j o.2.o.^   @ M G *.0.9.9.9.9.9.9.9.9.9.9.9.9.9.9.9.9.9.",
"9.9.4.= X t 2.o.p.. o G ] 9 %.9.9.9.9.9.9.9.9.9.9.9.9.9.9.9.9.9.",
"9.6.u x + r e...1.l A 2.2.! e 9.9.9.9.9.9.9.9.9.9.9.9.9.9.9.9.9.",
"9.p | 2.z 1.3.3.3.J ..3.<.! 9 9.9.9.9.9.9.9.9.9.9.9.9.9.9.9.9.9.",
"9.i ..[ ` e.3.2.3...0 2...F p 9.9.9.9.9.9.9.9.9.9.9.9.9.9.9.9.9.",
"0.4.m 2.H J [ { Q N - 2.Q y 8.9.9.9.9.9.9.9.9.9.9.9.9.9.9.9.9.9.",
"0.9.;.m 2.} ~ } :.: ; { q 7.9.9.9.9.9.9.9.9.9.9.9.9.9.9.9.9.9.9.",
"9.9.9.4.b ] * $ > # D B *.9.9.9.9.9.9.9.9.9.9.9.9.9.9.9.9.9.9.9.",
"9.9.9.9.6.& D 1 S , ! b 9.9.9.9.9.9.9.9.9.9.9.9.9.9.9.9.9.9.9.9.",
"9.9.9.9.0.4 x , < J 0 -.9.9.9.9.9.9.9.9.9.9.9.9.9.9.9.9.9.9.9.9.",
"9.9.9.9.9.n 0 H H 0 - 4.9.9.9.9.9.9.9.9.9.9.9.9.9.9.9.9.9.9.9.9.",
"9.9.9.9.9.U ] H H ! V 7.9.9.9.9.9.7.4.8.9.9.9.9.9.9.9.9.9.9.9.9.",
"9.9.9.9.9.C ` 2.<.[ w 9.9.9.9.=.v Z } / v *.0.9.9.9.9.9.9.9.9.9.",
"9.9.9.9.6.:.k. .| 1.P 9.9.9.=.W k.u.( e.e.W d 9.9.9.9.9.9.9.9.9.",
"9.9.9.9.=.r.x.l.l.g.I 9.9.5.c 1.e.2.2.( 3.` ` %.9.9.9.0.0.9.9.9.",
"9.9.9.9.+.h.x.l.l.g.I 9.9.f u.d.] [ 3.E [ ( 3.3 0.9.6.v c =.9.9.",
"9.9.9.9.#.l.x.l.l.j.U 9.5.Y 1.2.3.! Q G ! Q 3.R +.9.L ' [ U 7.9.",
"9.9.9.9.f l.z.l.l.g.m 7.a ( 2.Q [ ] D 8 F ! <.] L 4.A e.<.M O.9.",
"9.9.9.9.d >.w.w. .[ R y B [ <.2.( G y 4.w G Q 3.9 %.W ` ( ( s 9.",
"9.9.9.9.f d.s.2.3.3.X.M ( ( ! X.! 3 ;.9.d Q { { R y _ 2.2.H f 9.",
"9.9.9.9.$.e.d.2.3.2.! { { ( <.E Q g 9.9.=.0 G { ( 8 G ( ! R O.9.",
"9.9.9.9.;./ u.X.[ ! <.{ X.X.( ] 3 7.9.9.7.e E ! ( ( _ ! [ 9 ;.0.",
"9.9.9.9.0.b 1.,.<.3.2._ 2.2.R E g 0.9.9.9.L J Q { ( 1.] ! y 9.9.",
"9.9.9.9.9.5.U 2.3.3.X.] 2.[ D v 0.9.9.9.9.5.m ! G E ] R M ;.9.9.",
"9.9.9.9.9.9.7.v E ! G ] ! M 2 0.0.0.9.9.9.9.;.% E ! ! 0 f 9.9.9.",
"9.9.9.9.9.9.9.0.*.p L L f =.0.9.9.9.9.9.9.9.0.7.h K K %.0.9.9.9.",
"9.9.9.9.9.9.9.9.9.9.0.0.0.0.9.9.9.9.9.9.9.9.9.0.0.0.9.9.9.9.9.9."
};
