/* XPM */
static char *result[] = {
/* columns rows colors chars-per-pixel */
"32 32 195 2 ",
"   c #081F2D",
".  c #0A2635",
"X  c #0B2D3D",
"o  c #072739",
"O  c #082F40",
"+  c #083245",
"@  c #093548",
"#  c #0C3C4E",
"$  c #073242",
"%  c #093B51",
"&  c #0B465A",
"*  c #0D495D",
"=  c #0C4053",
"-  c #19495C",
";  c #0C4E63",
":  c #0E5066",
">  c #0D556B",
",  c #0D596F",
"<  c #1C5A6F",
"1  c #165469",
"2  c #0E5D74",
"3  c #105E75",
"4  c #2A5C6F",
"5  c #14637A",
"6  c #186078",
"7  c #20667A",
"8  c #296A7B",
"9  c #166D85",
"0  c #13728A",
"q  c #1A7288",
"w  c #1D7F97",
"e  c #246F83",
"r  c #227389",
"t  c #28778B",
"y  c #33798A",
"u  c #2E7E93",
"i  c #2F8092",
"p  c #24859C",
"a  c #248A9E",
"s  c #2E899F",
"d  c #3A8395",
"f  c #388599",
"g  c #1E8FA3",
"h  c #258BA3",
"j  c #358BA0",
"k  c #2090A3",
"l  c #2D94A7",
"z  c #2197AA",
"x  c #2A94AA",
"c  c #2599AC",
"v  c #2D9AAC",
"b  c #3D92A7",
"n  c #3696A8",
"m  c #3E9FAE",
"M  c #3998AB",
"N  c #279EB3",
"B  c #369FB1",
"V  c #2EA2B3",
"C  c #2FA4BA",
"Z  c #34A2B4",
"A  c #39A3B5",
"S  c #3CA4B8",
"D  c #32A8BC",
"F  c #34A6B8",
"G  c #428392",
"H  c #448899",
"J  c #4695A5",
"K  c #4D98A7",
"L  c #4797A9",
"P  c #5297A6",
"I  c #5299AD",
"U  c #479BB2",
"Y  c #40A3B7",
"T  c #4AA3B3",
"R  c #42AABC",
"E  c #4AABBB",
"W  c #52A1B0",
"Q  c #53ABBB",
"!  c #5DADBD",
"~  c #55A9B5",
"^  c #65AAB8",
"/  c #3CB2C6",
"(  c #40AEC1",
")  c #4CAFC1",
"_  c #54ADC2",
"`  c #44B0C3",
"'  c #4CB1C3",
"]  c #4AB8CC",
"[  c #51B5C6",
"{  c #5BB4C4",
"}  c #54B8C7",
"|  c #51B7C9",
" . c #55BACC",
".. c #5ABBCC",
"X. c #43BED1",
"o. c #5DBED0",
"O. c #69B9C8",
"+. c #64BFD3",
"@. c #45C3D6",
"#. c #4BC6DA",
"$. c #48C8DA",
"%. c #5CC2D4",
"&. c #52C6DA",
"*. c #56CADC",
"=. c #5CCADC",
"-. c #65C0CF",
";. c #73C3CF",
":. c #64C2D4",
">. c #6BC3D3",
",. c #6DC8D0",
"<. c #62C3D8",
"1. c #6BC5DA",
"2. c #64CBDD",
"3. c #6BCBDE",
"4. c #73C5D4",
"5. c #73CBD4",
"6. c #7BCBD6",
"7. c #73CDDC",
"8. c #7CCCDB",
"9. c #73C5D8",
"0. c #72D2DE",
"q. c #5DD2E3",
"w. c #64D1E1",
"e. c #6BD5E5",
"r. c #74D2E2",
"t. c #7CD3E3",
"y. c #77D5E8",
"u. c #82C2CD",
"i. c #87CFDB",
"p. c #89CED4",
"a. c #85D2DC",
"s. c #8BD0DD",
"d. c #87DBDE",
"f. c #96D7DF",
"g. c #A3D4DD",
"h. c #84D5E3",
"j. c #8BD4E2",
"k. c #8EDAE6",
"l. c #87DAE9",
"z. c #87DBE7",
"x. c #94D6E5",
"c. c #92DAE6",
"v. c #96DEE8",
"b. c #9CDBEA",
"n. c #9DDDE4",
"m. c #9CDCF2",
"M. c #A3D7E0",
"N. c #A3DEE5",
"B. c #A9DDE7",
"V. c #A3DDEA",
"C. c #A7D4FD",
"Z. c #A9D6FD",
"A. c #ACDAFC",
"S. c #AADDF6",
"D. c #B2DEFB",
"F. c #9AE0E5",
"G. c #9EE3EC",
"H. c #9FE0F2",
"J. c #A5E1ED",
"K. c #ACE3EC",
"L. c #B4E5EC",
"P. c #B9E6EE",
"I. c #BBE9EE",
"U. c #AAE4F0",
"Y. c #A6E7F4",
"T. c #B5E4F3",
"R. c #BBE5F6",
"E. c #BBE9F2",
"W. c #B5E3F9",
"Q. c #BBE2FB",
"!. c #B0E9F2",
"~. c #C6E8EE",
"^. c #C4E6EC",
"/. c #C0E6F1",
"(. c #C3EBF2",
"). c #CBEEF5",
"_. c #C3E6FB",
"`. c #C5E9FA",
"'. c #CBEBFB",
"]. c #D3EEF4",
"[. c #D3EEFB",
"{. c #D8EFFC",
"}. c #CDF1F7",
"|. c #C6F0F8",
" X c #CFF0F8",
".X c #D4F2F6",
"XX c #DBF3F7",
"oX c #D4F2F9",
"OX c #DCF4F9",
"+X c #E3F6FA",
"@X c #E9F7FC",
"#X c #E6F8FB",
"$X c #ECF9FC",
"%X c #F5FCFE",
"&X c #F9FDFF",
/* pixels */
"C.C.C.C.C.C.C.C.C.Z.C.C.C.C.C.C.C.C.C.C.C.C.C.C.C.C.C.C.C.C.C.C.",
"C.C.C.C.C.C.C.C.C.C.C.C.C.C.C.C.C.C.C.C.C.C.C.C.C.C.C.C.C.C.C.C.",
"C.C.C.C.C.C.C.C.C.C.C.C.C.C.C.C.C.C.C.C.Z.C.C.C.C.C.C.C.C.C.C.C.",
"C.C.C.C.C.C.C.C.C.C.C.Z.Z.A.D.'.'.[.[.`.D.C.C.Z.C.C.C.C.C.C.C.C.",
"C.C.C.C.C.C.C.C.Z.`.{.+X@X$X%X%X%X%X%X%X%X+X).A.C.C.C.C.C.C.C.C.",
"C.C.C.C.C.C.C.A.[.+X$X@X#X+X.XE.@X%X%X+XOX$X$X#XQ.Z.C.C.C.C.C.C.",
"C.C.C.C.C.C.D.OX+X@XK.k.t.k.*.0.2.l.{.).t.m.Z.A.Z.A.C.C.C.C.C.C.",
"C.C.C.C.C._.+XT.t.r.&.*.*.$.$.@.X.X.h.$X(.Y.H.S.C.Z.C.C.C.C.C.C.",
"C.C.C.C._.].B.&.#.$.w.z.$.w.0.c.K.K.(.E.J.E.oXOX`.W.Z.Z.C.C.C.C.",
"C.C.C.Z.+Xt.#.#.t.l.(.(.E.I.I.P.L.L.J.K.}.#XK.$XB.+X`.C.C.C.C.C.",
"C.C.Z._.P.&.&.k.+X^.s.a.J.5.,.-.......<.t.J.|.$XI.#X@XQ.A.Z.C.C.",
"C.C.D.].t.&.z..Xg.A F Q B A Z k v { 5.8.8.h.G.|.$X$X$X.X_.A.C.C.",
"C.D.`.b.7.V.~.u.l c c { V E k A 5.f.F.F.J.G.G.G..Xd.XXXXW.Z.C.C.",
"Z.{.[.1.c.).p.a V B V { %.c } 5.! J y y K O.c.Y.E.K.XX}..XZ.C.C.",
"C.Z.).<.K.I.T h Z Z V ..%.} ,.E j r 6 : > 7 P n.}.E.OX#XXXA.C.C.",
"Z.Q.).<.E.a.J l ' Z S %.-.5.! Q J d 8 < ; 2 r M F.E.e..X#X_.C.C.",
"Z.`.R.+.V.,.L b :.B R >.9.O.O.^ L i 8 5 2 , 9 s  .!.J.l.$X XC.C.",
"C.W.J.<.c.5.L I 4.R A >.Q d 4 - , , * = & 2 2 h ` e.+Xy.'.oXZ.C.",
"C.A.J.+.x.d.W U u.o.A 4.f . % > & @ X = * 2 5 a ' q.}.U._.Z.|.A.",
"C.Z.R.9.1.N.6.I _ j.S _ u @ * @ $ X X 1 : u 0 x / a..X%X'.C.Z.C.",
"C.C.A.V.o.8.>.4.! +.+.Y b < @ X o   X t > q p C D g.OX&XQ.C.C.C.",
"C.C.C.R.<.+.+.>.6.+.:...U u # . . - G a , a A X.z M.+X%XW.Z.C.C.",
"C.C.C.A.j.+.>.+.9.a.k.0. .[ W G J ~ n 0 p O.*.@.x .X$X$XZ.Z.C.C.",
"C.C.C.C.W.i.:.:.:.>.6.a.7.| E E m a a n } J.*./ 4.@X#XQ.C.C.C.C.",
"C.C.C.C.Z.R.b.1.3.2.o. ....._ S R R ` ..V.e.@.1.XX@X'.C.C.C.C.C.",
"C.C.C.C.C.Z.D.S.c.3.3.3.2.<.&.o./ | f.I.2.=.j.OX%XQ.C.C.C.C.C.C.",
"C.C.C.C.C.C.C.C.Z./.j.o.` C R O.~.OX`.V.R.oXXXU.Q.C.C.C.C.C.C.C.",
"C.C.C.C.C.C.C.C.C.Z.D.+X/.'.@X[.Q.Z.C.C.C.C.C.C.C.C.C.C.C.C.C.C.",
"C.C.C.C.C.C.C.C.C.C.C.C.C.C.C.C.C.C.C.C.C.C.C.C.C.C.C.C.C.C.C.C.",
"C.C.C.C.C.C.C.C.C.C.C.C.C.C.C.C.C.C.C.C.C.C.C.C.C.C.C.C.C.C.C.C.",
"C.C.C.C.C.C.C.C.C.C.C.C.C.C.C.C.C.C.C.C.C.C.C.C.C.C.C.C.C.C.C.C.",
"C.C.C.C.C.C.C.C.C.C.C.C.C.C.C.C.C.C.C.C.C.C.C.C.C.C.C.C.C.C.C.C."
};
