/* XPM */
static char *result[] = {
/* columns rows colors chars-per-pixel */
"32 32 179 2 ",
"   c #260804",
".  c #3B1202",
"X  c #331B1B",
"o  c #4D1A02",
"O  c #4A1303",
"+  c #531F10",
"@  c #561C0A",
"#  c #662608",
"$  c #682C18",
"%  c #612A19",
"&  c #783518",
"*  c #4C2B23",
"=  c #59372F",
"-  c #6C3C2C",
";  c #6F3523",
":  c #773D2A",
">  c #694035",
",  c #7E4836",
"<  c #4C3E44",
"1  c #4C4C58",
"2  c #544A54",
"3  c #765A56",
"4  c #73625F",
"5  c #545765",
"6  c #5E6474",
"7  c #66606D",
"8  c #7C6865",
"9  c #862B09",
"0  c #853404",
"q  c #993004",
"w  c #823617",
"e  c #A73304",
"r  c #AD3502",
"t  c #A13F02",
"y  c #B53502",
"u  c #BD3602",
"i  c #B53902",
"p  c #C63A02",
"a  c #CE3E05",
"s  c #D33D02",
"d  c #934A1F",
"f  c #B94502",
"g  c #B44802",
"h  c #844424",
"j  c #914225",
"k  c #864833",
"l  c #A55022",
"z  c #A15737",
"x  c #CA4402",
"c  c #C8480F",
"v  c #C34604",
"b  c #D64703",
"n  c #D84902",
"m  c #CB5101",
"M  c #DB5E0A",
"N  c #DC5E14",
"B  c #E44301",
"V  c #EE4602",
"C  c #ED4D02",
"Z  c #E54A06",
"A  c #F24701",
"S  c #F24C02",
"D  c #FA4C01",
"F  c #F34E09",
"G  c #ED5602",
"H  c #E75D02",
"J  c #E25601",
"K  c #F25302",
"L  c #FA5401",
"P  c #F35901",
"I  c #FB5D01",
"U  c #F9520C",
"Y  c #EB5B1B",
"T  c #ED5113",
"R  c #D7671E",
"E  c #DF6517",
"W  c #E7620F",
"Q  c #F46201",
"!  c #FC6401",
"~  c #FF6900",
"^  c #F96B0D",
"/  c #F8670B",
"(  c #E66C1E",
")  c #F26C12",
"_  c #D35F33",
"`  c #E55223",
"'  c #D46F2F",
"]  c #DC732E",
"[  c #D56A38",
"{  c #DF733D",
"}  c #ED6D20",
"|  c #F37320",
" . c #E26A34",
".. c #E47A38",
"X. c #895848",
"o. c #875A4C",
"O. c #906758",
"+. c #836860",
"@. c #9B7265",
"#. c #857876",
"$. c #AE6068",
"%. c #B27B72",
"&. c #D56B47",
"*. c #D47150",
"=. c #E47640",
"-. c #EB833C",
";. c #BF8E7C",
":. c #BF9179",
">. c #D28557",
",. c #EB8743",
"<. c #DC9467",
"1. c #C09179",
"2. c #DEA37B",
"3. c #6A7285",
"4. c #717282",
"5. c #6C7A90",
"6. c #7A879D",
"7. c #8E8483",
"8. c #9B8985",
"9. c #938989",
"0. c #968286",
"q. c #8C8B94",
"w. c #BA9983",
"e. c #A39A9A",
"r. c #838FA7",
"t. c #8596AF",
"y. c #8A9CB6",
"u. c #939FB6",
"i. c #A69EAC",
"p. c #98A0B4",
"a. c #ACA4A4",
"s. c #B2A7A4",
"d. c #B5AEB1",
"f. c #B0AEB8",
"g. c #B7B1B1",
"h. c #C28F88",
"j. c #C49C92",
"k. c #C09E9E",
"l. c #D0A284",
"z. c #DFB495",
"x. c #D1B9B0",
"c. c #EEAD92",
"v. c #89A3C0",
"b. c #94A7C3",
"n. c #9EB5D2",
"m. c #9DBCDD",
"M. c #ACAFC8",
"N. c #AAB4C9",
"B. c #B1B6CB",
"V. c #B3BBCB",
"C. c #B2B6C4",
"Z. c #ACBBD5",
"A. c #AEC2DD",
"S. c #A1C1E4",
"D. c #ACC5E3",
"F. c #A1C4E8",
"G. c #A2C9ED",
"H. c #AACAEB",
"J. c #A5CDF4",
"K. c #A8CEF3",
"L. c #A7D0F6",
"P. c #A7D4FD",
"I. c #A9D3F9",
"U. c #B6D5F1",
"Y. c #C9C6C6",
"T. c #D5D3D4",
"R. c #D8D6D6",
"E. c #E7E0DC",
"W. c #C3D9ED",
"Q. c #DFDFE1",
"!. c #C6DEF4",
"~. c #E6E5E5",
"^. c #E8E7E6",
"/. c #EFEEEE",
"(. c #F1EFEF",
"). c #F3E8E2",
"_. c #EFF1EF",
"`. c #F4F4F4",
"'. c #FEFEFE",
/* pixels */
"P.P.P.P.P.P.P.P.P.P.P.P.P.P.P.P.P.P.P.P.P.P.P.P.P.P.P.P.P.P.P.P.",
"P.P.P.P.P.P.P.P.P.P.P.P.P.P.P.P.P.P.P.P.P.P.P.P.P.P.P.P.P.P.P.P.",
"P.P.P.P.P.P.P.P.P.P.P.P.P.P.P.P.P.P.P.P.P.P.P.P.P.P.P.P.P.P.P.P.",
"P.P.P.P.P.P.P.P.P.P.P.P.P.P.P.P.P.P.P.P.P.P.P.P.P.P.P.P.P.P.P.P.",
"P.P.P.P.P.P.P.P.P.P.P.P.P.P.P.P.J.P.J.4.u.I.P.P.P.P.P.P.P.P.P.P.",
"P.P.P.P.P.P.P.P.P.P.P.P.P.P.P.C.M ' @.a Z i.P.P.P.P.P.P.P.P.P.P.",
"P.P.P.P.P.P.P.P.P.P.P.P.P.L.I.:.~ ~ H A D &.P.P.P.P.P.P.P.P.P.P.",
"P.F.F.P.P.P.P.P.P.P.P.P.P.:...E ~ ~ ! G D A Z.P.P.P.P.P.P.P.P.P.",
"P.7 3 f.I.P.P.P.P.P.P.P.G.] ~ ~ P ~ I A D D j.P.P.P.P.P.P.P.P.P.",
"I.  Q ~ ..B.P.P.P.P.V.R ' ( p S G P P K G G _ I.P.P.P.P.P.P.P.P.",
"F.  n ! ~ ) D.P.P.P.d.W z `.* P ~ ~ ~ ~ ! ~ # Q.!.m.P.P.P.P.P.P.",
"6.O ! K K !  .D.P.N.( Q , /.9.i ~ ~ ~ ~ ~ H #.'.s.l j.H.P.P.P.P.",
"r.  K I ! K S *.V.d ~ ~ w R./.+ ! ~ ~ ~ ~ g ~.^.& ..<.>.H.I.P.P.",
"b.. K S C S B s a.q ~ ~ r e.'.7.r ~ ~ ~ ~ h '.8 M )./.2...V.P.P.",
"y.o ~ ~ ! ! D y T.0 ~ ~ B - '.'.= P ~ ~ J +.^.9 | h.w.z.~ / k.P.",
"S.X n S S S S u R.> ~ ~ P % '.'.a.y ~ ~ v 8.s.x ~ >.l.-.~ ~ Y K.",
"P.< f L L P A s g.9.H ~ I $ '.'.'.: ! ~ e a.+.L ~ ~ ^ ~ ~ ~ D Z.",
"P.2 # Z K I D A 8.~.v ~ G > `.`.`.3 L ! q g.o.L ~ ~ ~ ~ ~ ~ T K.",
"P.n.. H ! ..B.Z.0.'.j D e e.~.^.~.@.A S e g.o.D ~ ~ b c Y  .B.P.",
"P.P.X @ %.J.P.P.P.!.; D & Y.^.^.c.D V A p a.#.B I ~ C $.J.P.P.P.",
"P.P.y.t.J.P.P.P.P.P.p.[ - R.~.x.U A S A B 1.Y.9 D ~ L ` M.P.P.P.",
"P.P.P.P.P.P.P.P.P.P.P.H.p.T.~.O.D C Q P K =.~.4 s L F h.K.P.P.P.",
"P.P.P.P.P.P.P.P.P.P.P.P.P.I.W.k A I ! ! K ^ E.R.- *.B.P.P.P.P.P.",
"P.P.P.P.P.P.P.P.P.P.P.P.P.P.P., V ! / ! ! K ,.U.I.P.P.P.P.P.P.P.",
"P.P.P.P.P.P.P.P.P.P.P.P.P.P.P.3 V ~ ! ! ~ P / Z.P.P.P.P.P.P.P.P.",
"P.P.P.P.P.P.P.P.P.P.P.P.P.P.P.3.u L Q ! ~ Q Q q.P.P.P.P.P.P.P.P.",
"P.P.P.P.P.P.P.P.P.P.P.P.P.P.P.v.O p n f f m t 6.P.P.P.P.P.P.P.P.",
"P.P.P.P.P.P.P.P.P.P.P.P.P.P.P.P.G.5.1 1 6 5 6 K.P.P.P.P.P.P.P.P.",
"P.P.P.P.P.P.P.P.P.P.P.P.P.P.P.P.P.P.P.P.P.P.P.P.P.P.P.P.P.P.P.P.",
"P.P.P.P.P.P.P.P.P.P.P.P.P.P.P.P.P.P.P.P.P.P.P.P.P.P.P.P.P.P.P.P.",
"P.P.P.P.P.P.P.P.P.P.P.P.P.P.P.P.P.P.P.P.P.P.P.P.P.P.P.P.P.P.P.P.",
"P.P.P.P.P.P.P.P.P.P.P.P.P.P.P.P.P.P.P.P.P.P.P.P.P.P.P.P.P.P.P.P."
};
