/* XPM */
static char *result[] = {
/* columns rows colors chars-per-pixel */
"32 32 185 2 ",
"   c #250A08",
".  c #320E02",
"X  c #2F1616",
"o  c #3A1407",
"O  c #591B02",
"+  c #691D04",
"@  c #5F2202",
"#  c #6D2608",
"$  c #7C2903",
"%  c #762D15",
"&  c #6E301D",
"*  c #5D362B",
"=  c #793721",
"-  c #6A3A2A",
";  c #5B4038",
":  c #65433A",
">  c #6E473B",
",  c #74483A",
"<  c #4C3B41",
"1  c #5D4645",
"2  c #474652",
"3  c #55525D",
"4  c #634D4A",
"5  c #6D534A",
"6  c #755851",
"7  c #595765",
"8  c #5E6574",
"9  c #7C6A67",
"0  c #7A6561",
"q  c #676777",
"w  c #616B7D",
"e  c #716B77",
"r  c #8E2C06",
"t  c #932A01",
"y  c #833305",
"u  c #8B3309",
"i  c #9F3708",
"p  c #943002",
"a  c #832F11",
"s  c #873417",
"d  c #983B1A",
"f  c #A02E04",
"g  c #A83406",
"h  c #B43402",
"j  c #873D22",
"k  c #C33C02",
"l  c #CB3C02",
"z  c #D53F01",
"x  c #8A4116",
"c  c #9F411C",
"v  c #A44305",
"b  c #BC4C03",
"n  c #B94302",
"m  c #AB421A",
"M  c #864027",
"N  c #944B31",
"B  c #C74502",
"V  c #D24502",
"C  c #DC4402",
"Z  c #DA4706",
"A  c #C75002",
"S  c #CC5102",
"D  c #DC5302",
"F  c #DD5A01",
"G  c #D8541B",
"H  c #E44201",
"J  c #EE4602",
"K  c #E34D02",
"L  c #EE4B02",
"P  c #E3480E",
"I  c #F24C01",
"U  c #F94C01",
"Y  c #F24702",
"T  c #EF5601",
"R  c #E05801",
"E  c #E65F08",
"W  c #E85A02",
"Q  c #F25401",
"!  c #FB5401",
"~  c #F45A01",
"^  c #FD5C01",
"/  c #EB5419",
"(  c #EA5D1A",
")  c #ED670E",
"_  c #F46101",
"`  c #FD6401",
"'  c #FF6900",
"]  c #EC691E",
"[  c #F6731B",
"{  c #F26818",
"}  c #C75329",
"|  c #C2622C",
" . c #D66820",
".. c #D96C28",
"X. c #DA7B3D",
"o. c #E5752E",
"O. c #F97A27",
"+. c #805A4B",
"@. c #975944",
"#. c #87685E",
"$. c #A17153",
"%. c #876E68",
"&. c #88726A",
"*. c #93756E",
"=. c #AF7E6B",
"-. c #DA6D47",
";. c #D66044",
":. c #CE7F4F",
">. c #D6704E",
",. c #C17E54",
"<. c #D47E5A",
"1. c #C17D6B",
"2. c #D27D62",
"3. c #BE887F",
"4. c #D6875A",
"5. c #D68757",
"6. c #EA8646",
"7. c #E88A52",
"8. c #E49159",
"9. c #F2975D",
"0. c #C18273",
"q. c #DE9674",
"w. c #C79279",
"e. c #F28B61",
"r. c #DAA27E",
"t. c #666F82",
"y. c #707385",
"u. c #7A7F93",
"i. c #A57F97",
"p. c #718197",
"a. c #9D9594",
"s. c #AE8E8F",
"d. c #BD9788",
"f. c #A79D9C",
"g. c #B89C98",
"h. c #808BA2",
"j. c #8692A8",
"k. c #9C9FAE",
"l. c #8B9CB7",
"z. c #A59CA0",
"x. c #90A2BD",
"c. c #AFA8A7",
"v. c #ADA3A8",
"b. c #B6ABAC",
"n. c #B5AAB7",
"m. c #BBB6B6",
"M. c #A7ABB6",
"N. c #D59880",
"B. c #DAAA8B",
"V. c #CCB6AE",
"C. c #C4BFBF",
"Z. c #CEC0B3",
"A. c #90A7C4",
"S. c #9ABADD",
"D. c #97B5D5",
"F. c #B2B5C8",
"G. c #ABBBD3",
"H. c #AABFDC",
"J. c #B2BCD3",
"K. c #AAB8CC",
"L. c #A4C3E5",
"P. c #ACC5E4",
"I. c #A6C8EA",
"U. c #B8D2EB",
"Y. c #A6CDF4",
"T. c #A9CDF2",
"R. c #A6D1F7",
"E. c #A9D1F6",
"W. c #A7D4FD",
"Q. c #A8D3FB",
"!. c #B2D4F3",
"~. c #C5C1C1",
"^. c #CAC6C6",
"/. c #CFCCCC",
"(. c #D0CECE",
"). c #DEDBDB",
"_. c #E2DFDF",
"`. c #CFDFEE",
"'. c #C7D5E3",
"]. c #E5E5E4",
"[. c #EDEDEC",
"{. c #F1EBE7",
"}. c #E9EFF4",
"|. c #FEFEFE",
" X c #F4F4F4",
/* pixels */
"W.W.W.W.W.W.W.W.W.W.W.W.W.W.W.W.W.W.W.W.W.W.W.W.W.W.W.W.W.W.W.W.",
"W.W.W.W.W.W.W.W.W.W.W.W.W.W.W.W.W.W.W.W.W.W.W.W.W.W.W.W.W.W.W.W.",
"W.W.W.W.W.W.W.W.W.W.W.W.W.W.W.W.W.W.W.W.W.W.W.W.W.W.W.W.W.W.W.W.",
"W.W.W.W.W.W.W.W.W.W.W.W.W.W.W.W.W.W.W.W.W.W.W.W.W.W.W.W.W.W.W.W.",
"W.W.W.W.W.W.W.W.W.W.W.S.e D.W.Y.W.W.W.W.W.W.W.W.W.W.W.W.W.W.W.W.",
"W.W.W.W.W.W.W.W.W.W.G.G H @.5.F d.W.W.W.W.W.W.W.W.W.W.W.W.W.W.W.",
"W.W.W.W.W.W.W.W.W.W.0.I I R ` ' X.Q.E.W.W.W.W.W.W.W.W.W.W.W.W.W.",
"W.W.W.W.W.W.W.W.W.E./ U Y ` ' ' E -.5.I.W.W.W.W.W.W.W.W.W.Y.S.W.",
"W.W.W.W.W.W.W.W.W.J.U U J ^ ` _ _ ` ) K.W.W.W.W.W.W.W.W.G.*.< Y.",
"W.W.W.W.W.W.W.W.W.1.Q Q T ~ ~ T Q V ] .. .g.W.W.W.W.P.4.' ' . x.",
"W.W.W.W.W.W.L.U.}.; _ ' ' ' ' ' ^ + [.=.F d.W.W.W.Y.o.' _ Q . j.",
"W.W.W.W.E.b.| &.|.m.A ' ' ' ' ' K 4 |.#.F ) v.R.R.4._ ! Q ^ y 3 ",
"W.W.W.E.w.5.7.v m.|.x ' ' ' ' ` $ C. X, ~ ' b M.N.I I _ ^ ! O 7 ",
"W.W.P.4.6.[.{.6.-  X6 _ ' ' ' Z 1 |./.a ^ ' F v.t H Q L I ! # y.",
"W.F.{ ' 8.Z.$.8.n c.f.n ' ' ` # ).|.9 k ` ' b m.d Y ^ ` ` ' y e ",
"W.>.` ' [ B.4.[ ! &.C.g ' ' K 9 |.|.: C ' ' y _.d Y I I Q K o l.",
"W./ ` ' ' ' ' ' ^ M ^.s ` ` r _.|.|.: K ' ' 5 [.i Y Q ! ~ D   W.",
"W.-._ ' ' ' ' ' ^ s /.= ^ ^ =  X X X0 B ' R c.~.l U ^ Q I p X W.",
"W.P.-.( G B ' ' ! s /.j U U N ].].].~.s U g |.f.n.H.<.` ` @ u.W.",
"W.W.W.W.i.P ' ` U , ^.m J J U e.].].].> H r `.Q.W.W.W.f.%   L.W.",
"W.W.W.L.;.U ' ! h f.V.z J I Y U N.].].6 } s.W.W.Q.Q.Q.Q.A.p.W.W.",
"W.W.W.W.n./ U I * _.q.I ~ ~ Q I m ].].k.L.W.W.W.Q.Q.Q.W.W.W.W.W.",
"W.W.W.W.W.P.2.s m.].O.T ' ~ ' J r '.E.W.W.W.W.W.Q.Q.W.W.W.W.W.W.",
"W.W.W.W.W.W.W.W.!.r.^ ~ ' _ ' L t R.W.W.W.W.W.W.W.W.W.W.W.W.W.W.",
"W.W.W.W.W.W.W.W.R. ._ ' ' _ ' Y s W.W.W.W.W.W.W.W.W.W.W.W.W.W.W.",
"W.W.W.W.W.W.W.W.D.F _ ' ' _ ^ C 4 W.W.W.W.W.W.W.W.W.W.W.W.W.W.W.",
"W.W.W.W.W.W.W.W.D.$ S b n B V # t.W.W.W.W.W.W.W.W.W.W.W.W.W.W.W.",
"W.W.W.W.W.W.W.W.W.p.3 8 3 2 8 S.W.W.W.W.W.W.W.W.W.W.W.W.W.W.W.W.",
"W.W.W.W.W.W.W.W.W.W.W.W.W.W.W.W.W.W.W.W.W.W.W.W.W.W.W.W.W.W.W.W.",
"W.W.W.W.W.W.W.W.W.W.W.W.W.W.W.W.W.W.W.W.W.W.W.W.W.W.W.W.W.W.W.W.",
"W.W.W.W.W.W.W.W.W.W.W.W.W.W.W.W.W.W.W.W.W.W.W.W.W.W.W.W.W.W.W.W.",
"W.W.W.W.W.W.W.W.W.W.W.W.W.W.W.W.W.W.W.W.W.W.W.W.W.W.W.W.W.W.W.W."
};
