/* XPM */
static char *result[] = {
/* columns rows colors chars-per-pixel */
"32 32 163 2 ",
"   c #1D4D11",
".  c #1E5212",
"X  c #204F18",
"o  c #215613",
"O  c #235C14",
"+  c #23521C",
"@  c #255A1B",
"#  c #2A5B1F",
"$  c #266315",
"%  c #296517",
"&  c #276916",
"*  c #296B17",
"=  c #2A631A",
"-  c #2B6C19",
";  c #2D7417",
":  c #2E741A",
">  c #2F791A",
",  c #31761B",
"<  c #327C1B",
"1  c #285520",
"2  c #2A5B25",
"3  c #2C5B2A",
"4  c #2F5E31",
"5  c #2C6524",
"6  c #336D2B",
"7  c #337524",
"8  c #367C24",
"9  c #35722D",
"0  c #387629",
"q  c #357D29",
"w  c #3A7D2D",
"e  c #336136",
"r  c #356539",
"t  c #367232",
"y  c #397536",
"u  c #3D7B37",
"i  c #3C753D",
"p  c #3D7C3B",
"a  c #417C3B",
"s  c #3A6845",
"d  c #3E6C4A",
"f  c #3E7345",
"g  c #3F7C41",
"h  c #437645",
"j  c #417B45",
"k  c #467D48",
"l  c #457454",
"z  c #467D51",
"x  c #4B7A50",
"c  c #47775B",
"v  c #49775D",
"b  c #4B7C5B",
"n  c #4E7C63",
"m  c #34831D",
"M  c #38871E",
"N  c #36891E",
"B  c #398D1E",
"V  c #3B921F",
"C  c #368022",
"Z  c #388324",
"A  c #378B20",
"S  c #398D21",
"D  c #3C8528",
"F  c #3B892A",
"G  c #3B9321",
"H  c #3E9B22",
"J  c #3D8133",
"K  c #3FA223",
"L  c #409E22",
"P  c #429F2A",
"I  c #41843C",
"U  c #459634",
"Y  c #46943B",
"T  c #49983D",
"R  c #42A324",
"E  c #44A925",
"W  c #51AD3F",
"Q  c #448044",
"!  c #468B41",
"~  c #44814A",
"^  c #48814D",
"/  c #4C8C4C",
"(  c #499441",
")  c #4B9249",
"_  c #4A8453",
"`  c #4C805A",
"'  c #508A5E",
"]  c #529D53",
"[  c #559D58",
"{  c #538C64",
"}  c #53816F",
"|  c #568E68",
" . c #589963",
".. c #56906C",
"X. c #5A936B",
"o. c #5A9A69",
"O. c #568473",
"+. c #5A8777",
"@. c #588778",
"#. c #5A897A",
"$. c #5B9473",
"%. c #5F977B",
"&. c #60997B",
"*. c #5FA76B",
"=. c #60A26A",
"-. c #62AF6F",
";. c #60A071",
":. c #66A979",
">. c #5F8D81",
",. c #618F87",
"<. c #639285",
"1. c #659B84",
"2. c #689C82",
"3. c #65948E",
"4. c #679C89",
"5. c #689F89",
"6. c #6B9996",
"7. c #6D9B9A",
"8. c #709D9F",
"9. c #67A185",
"0. c #72BF89",
"q. c #6BA190",
"w. c #74A694",
"e. c #70AA91",
"r. c #71A69A",
"t. c #75AC9E",
"y. c #75B597",
"u. c #77B09D",
"i. c #709EA0",
"p. c #73A1A5",
"a. c #76A4A9",
"s. c #7AA6AF",
"d. c #7CAFAC",
"f. c #7AB3A4",
"g. c #7DB4AD",
"h. c #7AA7B1",
"j. c #7CAAB4",
"k. c #7FACB8",
"l. c #7DB1B0",
"z. c #81B7AC",
"x. c #81AEBB",
"c. c #81B3B6",
"v. c #83B5BC",
"b. c #89BAC5",
"n. c #8AB7CB",
"m. c #8CBCCC",
"M. c #8FBCD2",
"N. c #91BED7",
"B. c #92BFD9",
"V. c #91C3D3",
"C. c #95C3DC",
"Z. c #95C9DA",
"A. c #99CEDE",
"S. c #96C4E1",
"D. c #99C6E5",
"F. c #9AC9E5",
"G. c #9DCCEB",
"H. c #9DD0E7",
"J. c #9FD0ED",
"K. c #A1CDEF",
"L. c #A1CEF2",
"P. c #A3D0F5",
"I. c #A7D4FD",
/* pixels */
"I.I.I.I.I.I.I.I.I.j.I.I.I.I.I.I.I.I.I.I.I.I.I.I.I.L.D.I.I.I.I.I.",
"I.I.I.I.I.I.M.I.I.7.k.L.I.I.I.I.I.I.L.I.I.L.S.,.I.#.D.I.I.I.I.I.",
"I.I.I.I.I.I.6.j.I.D.3 x.S.I.I.I.k.N.k.I.I.O.,.i.6.n I.I.I.I.I.I.",
"I.I.A.I.I.I.S.e L.C.+ i.a.P.I.D.l B.@.I.7.v e D.3 M.I.I.N.x.I.I.",
"G.M.0.A.I.I.I.@.a.<.d d r.j.I.n.4 #.n I.e d 3.i.n I.I.h.e N.I.I.",
"I.c.@ W H.I.I.S.s u l @ 2 f S.n.X e n S.+ 5 G.e n.L.h.2 n.I.I.L.",
"I.I.@.< -.I.I.L.v - [ o 3   = 3   X b 7.O Q j.6 <.b.1 t.I.I.q.F.",
"I.I.K.f H g.I.I.O.f R , 6   * $   1 y 6 : & 3 @ 6.r u K.I.r.&.I.",
"I.I.I.M.F ( j.V.e   K : : O * O O   X - . = $ z v - u.I.N.t G.I.",
"I.Z.z.w.D V o @     K : > S =   * $   O . # $ 5.o I L.I._ 2.F.I.",
"I.I.*.w h H * O O   K *   H :   O N X m o ` & 1 - f.I.v.* y V.I.",
"I.C.b m * B > M m . R O & < H & M V m A & o & O o.L.N.9 ~ G.I.I.",
"I.P.7., : < B N S O H & m : H H R E m M < $ m : 9.m.) Z f.I.I.I.",
"I.I.D.f < ; L - H $ E - m m E E > V V B B R m > X.F N ( P.I.I.I.",
"I.I.I.j.: > H < N > E * m R E m m K m B K B , , $ > N u.I.I.I.I.",
"I.I.I.L.y < H m < < E O G E M N H R : R N < - $ m N Z e.P.I.I.I.",
"I.1.9 5.x m m B < $ R * E N $ A S H < < N % O N B / _ I.I.I.I.I.",
"I.I.r.9 $ - * L m o L < R - o G G V G ; N $ < G < $.2.w.m.I.I.I.",
"I.I.P.4.O ; $ H A O S H A $ m H H V H M * ; V m 7 _ x b.I.I.I.I.",
"I.I.I.C.5 $ < B G & m E * : H G V H B N $ N N $ , 7 &.I.I.I.I.I.",
"I.I.I.L.a O C G G : H R : H A G G R m < < B m $ m Z V.I.I.I.I.I.",
"I.I.I.C.t $ A G - m R L K B B B G R B - M V > > q ' I.I.I.I.I.I.",
"I.I.I.I.{ t ; L $ H E L V N V Z G G V m B V * Y { c.I.I.I.I.I.I.",
"I.I.I.I.$._ ; V - L H L $ B B m C < A S V N m  .g b.I.I.I.I.I.I.",
"I.I.I.J.| _ > m > K * H o V A S w < N B V m N j & l.I.I.I.I.I.I.",
"I.I.I.K.$._ J Z m R $ G O B m ] X.Z m Z V < < a a l.I.I.I.I.I.I.",
"I.I.I.I.I.m.h / > N < B & G > ] 9.I m , M m < _ 1.d.I.I.I.I.I.I.",
"I.I.I.I.I.I.k.C.g 7 Q 8 > V 8 ] V. .< T m M ! { V.C.I.I.I.I.I.I.",
"I.I.I.I.I.I.I.I.r.i t 0 < T =.y.P.V.) :.;.U V.Z.I.I.I.I.I.I.I.I.",
"I.I.I.I.I.I.I.I.v.1.k 1.t J.H.J.I.I.P.P.P.V.I.I.I.I.I.I.I.I.I.I.",
"I.I.I.I.I.I.I.I.I.L.l.v.X.I.I.I.I.I.I.I.I.I.I.I.I.I.I.I.I.I.I.I.",
"I.I.I.I.I.I.I.I.I.I.I.I.G.I.I.I.I.I.I.I.I.I.I.I.I.I.I.I.I.I.I.I."
};
